<?xml version="1.0" encoding="utf-8" ?><svg xmlns="http://www.w3.org/2000/svg" xmlns:xlink="http://www.w3.org/1999/xlink" width="400" height="400" viewBox="0 0 400 400"><path fill="#0C373D" d="M0 0L400 0L400 400L0 400L0 0Z"/><path fill="#C1F204" d="M198.946 89.9819C199.693 90 200.829 89.9184 201.421 90.4531C202.625 91.5394 214.072 130.667 215.813 136.375C216.712 139.325 218.802 148.315 220.707 150.196C222.589 150.905 229.599 146.443 231.637 145.321L251.519 134.363C253.636 133.194 258.446 130.328 260.495 129.876C261.613 130.039 262.95 131.382 262.592 132.273C257.21 145.662 250.631 158.725 244.778 171.954C244.105 173.475 243.339 174.942 243.274 176.561C244.317 178.574 260.218 182.871 263.129 183.766L296.422 194.016C299.022 194.815 307.491 196.84 309.335 198.412C309.816 198.822 310.05 199.463 310.043 200.085C310.034 201.081 309.366 201.485 308.563 201.936C305.254 203.794 298.951 205.165 295.148 206.339C289.618 208.046 244.95 221.297 243.77 222.656C243.16 223.36 243.604 225.054 243.854 225.832C244.992 229.364 247.005 232.912 248.556 236.31L258.49 258.062C259.436 260.114 262.596 266.31 262.614 268.236C262.149 269.392 261.032 270.563 259.776 269.936C249.814 264.972 240.149 259.134 230.302 253.922C228.113 252.764 223.228 249.66 221.194 249.503C219.15 250.518 215.628 264.186 214.818 266.856L205.578 297.255C204.786 299.86 202.511 308.294 201.117 310.032C200.311 310.019 198.805 310.049 198.439 309.306C196.783 305.94 195.353 300.375 194.266 296.765L185.393 267.474C184.217 263.578 183.108 259.628 181.728 255.803C181.089 254.171 180.645 248.546 177.674 249.787C174.378 251.163 170.969 253.21 167.823 254.942L147.198 266.305C143.4 268.395 135.513 274.039 138.189 265.325C140.362 258.247 156.674 228.487 156.724 223.434C155.612 221.323 140.412 217.291 137.288 216.33L103.593 205.954C100.165 204.898 93.6435 203.229 90.5686 201.413C89.967 201.058 89.9378 199.94 89.9462 199.262C91.1741 197.259 105.541 193.427 108.557 192.497L140.847 182.543C143.991 181.58 154.605 178.756 156.504 176.993C157.325 174.886 154.789 171.36 153.97 169.358C153.291 167.698 152.478 165.95 151.736 164.315L141.241 141.253C140.233 139.049 137.423 133.777 137.34 131.763C137.677 130.801 138.694 129.538 139.826 129.938C142.538 130.899 145.204 132.558 147.737 133.952L167.006 144.559C169.557 145.962 176.42 150.213 178.932 150.271C179.972 149.817 180.425 148.614 180.77 147.55C182.322 142.77 183.759 137.848 185.21 133.045L194.259 103.287C195.13 100.426 197.407 91.7862 198.946 89.9819Z"/></svg>