<?xml version="1.0" encoding="UTF-8"?>
<svg xmlns="http://www.w3.org/2000/svg" viewBox="366 336 648 228">
  <path d="M 390 390 L 420 360 L 450 360 L 450 420 L 480 420 L 480 450 L 450 450 L 450 540 L 390 540 L 390 390 Z M 480 450 L 510 450 L 510 360 L 570 360 L 570 510 L 540 540 L 510 540 L 510 480 L 480 480 L 480 450 Z M 600 390 L 630 360 L 780 360 L 780 420 L 660 420 L 660 480 L 720 480 L 720 450 L 780 450 L 780 510 L 750 540 L 600 540 L 600 390 Z M 810 390 L 840 360 L 870 360 L 870 420 L 930 420 L 930 360 L 990 360 L 990 510 L 960 540 L 930 540 L 930 480 L 870 480 L 870 540 L 810 540 L 810 390 Z" fill="#000000" fill-rule="evenodd" stroke="none" /><path d="M 450 420 L 450 450 L 480 450 L 480 420 Z" fill="none" stroke="#111111" stroke-width="1" stroke-linejoin="round" stroke-linecap="butt" /><path d="M 480 450 L 480 480 L 510 480 L 510 450 Z" fill="none" stroke="#111111" stroke-width="1" stroke-linejoin="round" stroke-linecap="butt" />
</svg>